<svg xmlns="http://www.w3.org/2000/svg" width="173" height="173" viewBox="0 0 173 173">
  <g id="Group_14" data-name="Group 14" transform="translate(-864 -147)">
    <circle id="Ellipse_1" data-name="Ellipse 1" cx="86.5" cy="86.5" r="86.5" transform="translate(864 147)" fill="#fff"/>
    <g id="Group_13" data-name="Group 13" transform="translate(876.389 162.486)">
      <path id="Path_5" data-name="Path 5" d="M49.333,26.128l-35.5,80.833h43.2V31.473q0-13.04.854-25.446h-.637Z" transform="translate(4.229 1.609)" fill="#f10005" fill-rule="evenodd"/>
      <path id="Path_6" data-name="Path 6" d="M55.889,2.026A73.826,73.826,0,0,0,8.472,107.253Z" transform="translate(-0.333 0.257)" fill="#f10005" fill-rule="evenodd"/>
      <path id="Path_7" data-name="Path 7" d="M57.852,88.663H11.41a73.777,73.777,0,0,0,46.442,28.371Z" transform="translate(3.41 29.529)" fill="#f10005" fill-rule="evenodd"/>
      <path id="Path_8" data-name="Path 8" d="M56.092.319c-.769,0-1.531.037-2.3.058v108.51H106.1v9.622H53.8v29.407c.764.02,1.526.058,2.3.058A73.827,73.827,0,0,0,56.092.32Zm7.939,23.888H69.89v12.27H77.3V25.06h5.856V36.478h8.7V24.2h5.9V43.62H64.031Zm0,26.452H69.89V62.926H77.3V51.51h5.856V62.925h8.7V50.659h5.9V70.072H64.031Zm32.148,47.5H89.539a38.957,38.957,0,0,0,2.142-5.776,16.988,16.988,0,0,0,.625-4.324,6.154,6.154,0,0,0-.9-3.608A3.072,3.072,0,0,0,88.737,83.2a2.941,2.941,0,0,0-1.764.557,6.163,6.163,0,0,0-1.489,1.624A42.593,42.593,0,0,0,83.2,89.746a20.569,20.569,0,0,1-2.791,4.633,10.456,10.456,0,0,1-3.11,2.47,8.893,8.893,0,0,1-4.152.921,8.709,8.709,0,0,1-7.035-3.031q-2.561-3.031-2.561-8.381a19.906,19.906,0,0,1,.621-5.018,34.688,34.688,0,0,1,1.75-4.991l5.56,2.3a34.42,34.42,0,0,0-1.544,4.462,14.335,14.335,0,0,0-.439,3.473,4.589,4.589,0,0,0,.947,3.118,3.117,3.117,0,0,0,2.465,1.081,3.04,3.04,0,0,0,1.65-.436,4.737,4.737,0,0,0,1.36-1.4,42.439,42.439,0,0,0,2.365-4.531,18.078,18.078,0,0,1,4.531-6.48,8.861,8.861,0,0,1,5.568-1.75,8.718,8.718,0,0,1,7.194,3.283q2.63,3.289,2.631,9.146a21.453,21.453,0,0,1-2.032,9.541Z" transform="translate(17.73 -0.319)" fill="#f10005" fill-rule="evenodd"/>
    </g>
  </g>
</svg>
